<?xml version="1.0" encoding="utf-8"?>
<!-- Generator: Adobe Illustrator 26.0.2, SVG Export Plug-In . SVG Version: 6.00 Build 0)  -->
<svg version="1.1" id="Layer_1" xmlns="http://www.w3.org/2000/svg" xmlns:xlink="http://www.w3.org/1999/xlink" x="0px" y="0px"
	 viewBox="0 0 572 247.37" style="enable-background:new 0 0 572 247.37;" xml:space="preserve">
<style type="text/css">
	.st0{fill:#034EA2;}
	.st1{fill:#34AB49;}
	.st2{fill:#EE2524;}
	.st3{fill:#286231;}
	.st4{fill:#7A121E;}
	.st5{fill:#FAA61A;}
	.st6{fill:#903092;}
	.st7{fill:#640815;}
</style>
<g>
	<g>
		<path class="st0" d="M0,0.93h23.33c13.77,0,22.63,7.08,22.63,19.13v0.16c0,12.83-9.88,19.6-23.41,19.6h-7.47v15.56H0V0.93z
			 M22.24,28c5.37,0,8.63-2.8,8.63-7.08v-0.16c0-4.67-3.27-7.16-8.71-7.16h-7.08V28H22.24z"/>
		<path class="st0" d="M58.02,0.93h25.74c8.32,0,14.08,2.18,17.73,5.91c3.19,3.11,4.82,7.31,4.82,12.68v0.16
			c0,8.32-4.43,13.84-11.2,16.72l12.99,18.98H90.68L79.72,38.89h-0.16h-6.46v16.49H58.02V0.93z M83.06,27.07
			c5.13,0,8.09-2.49,8.09-6.46v-0.16c0-4.28-3.11-6.46-8.17-6.46h-9.88v13.07H83.06z"/>
		<path class="st0" d="M118.06,0.93h43.79v12.83h-28.86v8.24h26.13v11.9h-26.13v8.63h29.24v12.83h-44.18V0.93z"/>
		<path class="st0" d="M171.49,47.29l8.4-10.03c5.37,4.28,11.36,6.53,17.66,6.53c4.04,0,6.22-1.4,6.22-3.73V39.9
			c0-2.26-1.79-3.5-9.18-5.21c-11.59-2.64-20.53-5.91-20.53-17.11v-0.16C174.05,7.31,182.06,0,195.13,0c9.26,0,16.49,2.49,22.4,7.23
			l-7.54,10.66c-4.98-3.5-10.42-5.37-15.24-5.37c-3.66,0-5.44,1.56-5.44,3.5v0.16c0,2.49,1.87,3.58,9.41,5.29
			c12.52,2.72,20.3,6.77,20.3,16.96v0.16c0,11.12-8.79,17.73-22.01,17.73C187.35,56.31,178.18,53.28,171.49,47.29z"/>
		<path class="st0" d="M230.75,0.93h15.17v54.45h-15.17V0.93z"/>
		<path class="st0" d="M259.99,0.93h21c19.44,0,30.72,11.2,30.72,26.91V28c0,15.71-11.43,27.38-31.03,27.38h-20.69V0.93z M281.22,42
			c9.02,0,15.01-4.98,15.01-13.77v-0.16c0-8.71-5.99-13.77-15.01-13.77h-6.14V42H281.22z"/>
		<path class="st0" d="M323.61,0.93h43.79v12.83h-28.86v8.24h26.13v11.9h-26.13v8.63h29.24v12.83h-44.18V0.93z"/>
		<path class="st0" d="M379.6,0.93h14.08l22.4,28.78V0.93h14.93v54.45h-13.22l-23.26-29.87v29.87H379.6V0.93z"/>
		<path class="st0" d="M459.63,14.16H443.3V0.93h47.76v13.22h-16.33v41.22h-15.09V14.16z"/>
		<path class="st0" d="M503.34,0.93h43.79v12.83h-28.86v8.24h26.13v11.9h-26.13v8.63h29.24v12.83h-44.18V0.93z"/>
	</g>
	<path class="st1" d="M403.4,131.72c3.76-10.62,9.54-20.29,16.86-28.56c-14.49-17.59-36.4-28.85-60.95-28.97v-0.01h-42.16V92.2
		v33.85h-17.46v121.32h42.26v-0.18h0.02c0,0.03-0.01,0.06-0.01,0.09c0,0.03,0.01,0.06,0.01,0.09h15.5v-14.43h1.85h8.25l7.22,14.43
		h57.77l-18.41-36.79c0.03-0.03,0.06-0.06,0.09-0.09c-9.94-14.11-15.78-31.31-15.78-49.87C398.46,150.49,400.21,140.76,403.4,131.72
		 M358.9,175.21h-1.44v-43.29h1.44c11.97,0,21.66,9.69,21.66,21.65C380.56,165.52,370.86,175.21,358.9,175.21"/>
	<path class="st2" d="M317.15,74.19v-0.03h-33.8h-57.78H208.1v51.89h12.92h4.56v26.6c0.01,0.06,0.01,0.12,0.02,0.17h-0.02v15.88
		h0.02c-0.01,0.06-0.01,0.12-0.02,0.17v78.49h57.78V126.05h5.02h11.32V74.19H317.15z"/>
	<polygon class="st3" points="317.15,92.2 317.15,74.19 299.69,74.19 299.69,126.05 317.15,126.05 	"/>
	<path class="st0" d="M191.77,91.84V74.16h16.32v-0.01h-56.19H92.53v10.32c7.43,4.75,13.9,10.88,19.04,18.02
		c8.22,11.41,13.08,25.39,13.08,40.5c0,24.55-12.82,46.15-32.12,58.5v45.89H208.1V195.4h-56.19v-11.55h47.81v-46.19h-47.81v-11.55
		h56.19v-0.07h-16.32V91.84z"/>
	<polygon class="st4" points="191.77,74.16 191.77,91.84 191.77,126.05 208.1,126.05 208.1,74.16 	"/>
	<path class="st5" d="M92.53,183.86v-46.19v-11.55V84.47c-10.8-6.91-23.62-10.92-37.36-10.92H0.91v173.82h55.15v-34.96l3.84,0v-0.16
		c7.01-0.47,13.73-1.99,20.02-4.4c4.44-1.7,8.66-3.85,12.61-6.38v-6.08V183.86z M56.88,163.84h-0.84V121.6h0.84
		c11.67,0,21.14,9.46,21.14,21.12C78.01,154.38,68.55,163.84,56.88,163.84"/>
	<path class="st2" d="M124.65,142.98c0-15.1-4.85-29.09-13.08-40.5c-5.15-7.14-11.61-13.26-19.04-18.02v41.65v11.55v46.19v11.55
		v6.08C111.83,189.13,124.65,167.53,124.65,142.98"/>
	<path class="st6" d="M549.57,102.43c-15.87-17.53-38.8-28.54-64.31-28.54c-25.51,0-48.44,11.01-64.31,28.54
		c-13.94,15.39-22.43,35.8-22.43,58.2s8.49,42.81,22.43,58.2c15.87,17.53,38.8,28.54,64.31,28.54c25.51,0,48.44-11.01,64.31-28.54
		c13.94-15.39,22.43-35.8,22.43-58.2S563.51,117.82,549.57,102.43z M485.26,188.82c-15.57,0-28.19-12.62-28.19-28.19
		s12.62-28.19,28.19-28.19s28.19,12.62,28.19,28.19S500.83,188.82,485.26,188.82z"/>
	<path class="st7" d="M438.33,153.56c0-19.14-6.78-36.69-18.07-50.4c-7.32,8.27-13.1,17.93-16.86,28.56
		c-3.2,9.04-4.95,18.77-4.95,28.91c0,18.56,5.84,35.76,15.78,49.87C429.09,196.07,438.33,175.9,438.33,153.56"/>
</g>
</svg>
